<?xml version="1.0" encoding="utf-8"?>
<!-- Generator: Adobe Illustrator 28.3.0, SVG Export Plug-In . SVG Version: 6.00 Build 0)  -->
<svg version="1.1" xmlns="http://www.w3.org/2000/svg" xmlns:xlink="http://www.w3.org/1999/xlink" x="0px" y="0px"
	 viewBox="0 0 492 492" style="enable-background:new 0 0 492 492;" xml:space="preserve">
<style type="text/css">
	.st0{display:none;}
	.st1{display:inline;fill:#172C52;}
	.st2{display:inline;fill:none;stroke:#000000;stroke-width:3;stroke-miterlimit:10;}
	.st3{fill:#FFFFFF;}
	.st4{fill:none;stroke:#FFFFFF;stroke-width:9.4767;stroke-linejoin:round;stroke-miterlimit:10;}
</style>
<g id="Camada_1" class="st0">
	<rect class="st1" width="492" height="492"/>
	<line class="st2" x1="-2527" y1="56.5" x2="492" y2="56.5"/>
	<line class="st2" x1="-2527" y1="434.5" x2="492" y2="434.5"/>
</g>
<g id="Camada_2">
	<g id="Refazer_00000126309617039965423210000014779279192755058818_">
		<path class="st3" d="M404.9,57H86c-20.6,0-37.2,16.7-37.2,37.2v303.6c0,20.6,16.7,37.2,37.2,37.2h319c20.7,0,37.4-16.6,37.4-37V94
			C442.3,73.6,425.6,57,404.9,57z M336.6,304c-18,17.9-43.7,26.4-69.1,27.4c-14,0.5-35-5.7-55.1-12.7v28.9c0,6.7-7.6,10.5-13,6.4
			L143,311.4c-4.2-3.2-4.2-9.7,0-12.9l56.5-42.7c5.3-4,13-0.2,13,6.5v32.4c18.5,2.2,37.6,7.6,50.2,6.1c23.7-2.8,47.5-16.8,54.9-39.4
			c6.8-21.1-2.6-45.2-19.5-59.6c-16.9-14.4-39.8-20.1-62-20.1c-19.2,0-38.1,4-56.8,8.4c-5,1.2-10.1-1.9-11.4-6.9
			c-3.1-12.1-4.3-23.8-3.7-35.3c0.2-4.6,3.4-8.4,7.8-9.7c32.4-9.5,67.3-11.7,99.9-2.6c35,9.8,66.8,33.9,81.3,67.1
			C367.6,236.1,362.4,278.3,336.6,304z"/>
	</g>
</g>
</svg>
