<?xml version="1.0" encoding="utf-8"?>
<!-- Generator: Adobe Illustrator 28.3.0, SVG Export Plug-In . SVG Version: 6.00 Build 0)  -->
<svg version="1.1" xmlns="http://www.w3.org/2000/svg" xmlns:xlink="http://www.w3.org/1999/xlink" x="0px" y="0px"
	 viewBox="0 0 492 492" style="enable-background:new 0 0 492 492;" xml:space="preserve">
<style type="text/css">
	.st0{display:none;}
	.st1{display:inline;fill:#172C52;}
	.st2{display:inline;fill:none;stroke:#000000;stroke-width:3;stroke-miterlimit:10;}
	.st3{fill:#FFFFFF;}
	.st4{fill:none;stroke:#FFFFFF;stroke-width:9.4767;stroke-linejoin:round;stroke-miterlimit:10;}
</style>
<g id="Camada_1" class="st0">
	<rect x="0" class="st1" width="492" height="492"/>
	<line class="st2" x1="-625" y1="56.5" x2="2394" y2="56.5"/>
	<line class="st2" x1="-625" y1="434.5" x2="2394" y2="434.5"/>
</g>
<g id="Camada_2">
	<g id="Saideira_00000084531847984022810060000018216007008629914246_">
		<path class="st3" d="M373.2,184.3c-5.3,2.1-10.4-5.6-8.4-11.2s8-8.5,13.5-9.4c17.6-2.8,35.4,8.4,44.8,24.5s11.4,35.9,9.6,54.7
			c-2.7,26.8-12.9,52.8-29.1,73.6c-6.6,8.5-14.5,16.3-24.1,20.5c-3.6,1.6-7.5,2.5-11.3,1.8c-3.8-0.8-7.4-3.7-8.2-7.7
			c-1.4-6.7,5-12.1,10.2-16.2c27.4-21.5,44-57.7,43.1-93.8c-0.3-11.6-2.7-24-10.3-32.3C395.3,180.3,382.5,180.6,373.2,184.3z"/>
		<path class="st3" d="M291.3,214.4H336c4.6,3.4,8.8,4.5,11.8,7.6c3.9,4.1,3.8,12.4,3.7,17.6c-0.9,40.7-1.8,81.5-2.7,122.2
			c-0.4,19.3-1.4,40.3-13.5,54.7c-7.3,8.8-17.9,13.8-28.6,16.3c-10.8,2.4-21.9,2.4-32.9,2.3c-35.4-0.2-70.8-0.4-106.3-0.6
			c-18.8-0.1-39.6-1-53.3-14.7c-14.7-14.8-15.8-38.9-15.9-60.4c-0.2-39.9-0.4-79.8-0.6-119.7c0-7.4,1.4-10.8,6.5-15.7
			c6.1-5.9,11.3-5.5,17.6-5.6h119.3c-2,9.3,0.8,19.9,7.4,27c6.5,7.1,16.4,10.3,25.5,8.5c4.1-0.8,8-2.7,10.9-6
			C290.8,241.1,291.3,227.4,291.3,214.4z"/>
		<path class="st4" d="M369.2,121c-3.2,8.8-9.5,16.6-17.4,21.5c-4.9,3.1-10.5,5.1-16.3,5.6c-13.2,1.1-27-6.4-32.9-18
			c-0.9-1.7-1.6-3.6-2.1-5.5c-1.5,1.9-3.1,3.8-4.8,5.5c-6.1,6.1-13.6,10.3-21.5,11.1c-0.5,19.9,1.8,39.5,7,58.1
			c1,3.5,2.1,7.1,3.3,10.5c2.7,7.8,6,15.7,5.1,23.9c-1.1,9.7-8.6,18.4-18.1,21c-9.5,2.6-20.3-0.9-26.6-8.3
			c-6.4-7.5-8.1-18.5-4.5-27.7c2-5.2,5.5-9.7,8.2-14.6c0.8-1.6,1.6-3.2,2.2-4.8c7-17.4,3.6-37.8,0-56.6c-6.9-2.2-13.6-6.7-18.7-12.6
			c-2.2-2.5-4.1-5.3-5.6-8.3c-1.1,3-2.7,5.7-4.5,8.3c-7,9.7-18.6,16.1-30.5,16c-11.7-0.1-23-6.4-29.6-16c-1.9-2.7-3.4-5.6-4.5-8.7
			c-0.8,3.1-2,6.1-3.7,8.7c-6.6,10.5-19.6,16.8-31.9,15.5c-8.9-0.9-17-5.3-23.3-11.6c-4.7-4.7-8.4-10.6-10.5-16.9
			c-4.4-12.8-2.5-28.3,6.9-38c7.8-8.2,20.1-11.4,31.3-10c11.3,1.4,21.7,7,30.6,14c5.3-14.8,21.7-26.3,38.6-26
			c16.9,0.2,33,12.1,38.2,28.1c8.8-10.1,20.3-16.3,31.7-15.6c11.4,0.7,22.1,8.2,26.6,18.7c6.4-11.9,17.7-20.7,30.5-23.3
			c12.8-2.6,26.7,1.1,36.4,9.9C370.7,86.1,374.9,105.2,369.2,121z"/>
		<path class="st3" d="M249.7,199.2h-145c-3.1,0-5.6-2.5-5.6-5.6v-57.1c0-0.6,0.1-1.2,0.3-1.7c6.2,6.2,14.2,10.5,23,11.5
			c12.2,1.3,25-5,31.5-15.3h8.1c6.5,9.4,17.7,15.6,29.2,15.7c11.7,0.1,23.1-6.1,30.1-15.7h10.1c5.1,5.8,11.7,10.2,18.5,12.4
			C253.2,162,256.6,182,249.7,199.2z"/>
		<path class="st3" d="M353,143.3v50.4c0,3.1-2.5,5.6-5.6,5.6h-64.1c-5.1-18.4-7.4-37.7-6.9-57.3c7.9-0.7,15.2-4.9,21.2-10.9h6.8
			c5.9,11.5,19.4,18.8,32.5,17.8C342.7,148.3,348.2,146.3,353,143.3z"/>
	</g>
</g>
</svg>
