<?xml version="1.0" encoding="utf-8"?>
<!-- Generator: Adobe Illustrator 28.3.0, SVG Export Plug-In . SVG Version: 6.00 Build 0)  -->
<svg version="1.1" xmlns="http://www.w3.org/2000/svg" xmlns:xlink="http://www.w3.org/1999/xlink" x="0px" y="0px"
	 viewBox="0 0 492 492" style="enable-background:new 0 0 492 492;" xml:space="preserve">
<style type="text/css">
	.st0{display:none;}
	.st1{display:inline;fill:#172C52;}
	.st2{display:inline;fill:none;stroke:#000000;stroke-width:3;stroke-miterlimit:10;}
	.st3{fill:#FFFFFF;}
	.st4{fill:none;stroke:#FFFFFF;stroke-width:9.4767;stroke-linejoin:round;stroke-miterlimit:10;}
</style>
<g id="Camada_1" class="st0">
	<rect class="st1" width="492" height="492"/>
	<line class="st2" x1="-1870" y1="56.5" x2="1149" y2="56.5"/>
	<line class="st2" x1="-1870" y1="434.5" x2="1149" y2="434.5"/>
</g>
<g id="Camada_2">
	<path class="st3" d="M206.4,189.6c-19.5-25.2-22.4-62-7.2-89.9c15.3-27.9,47.9-45.3,79.6-42.5c15,1.4,30,7.1,40.5,17.8
		c15.1,15.3,19.4,38.9,15.2,60c-4.2,21.1-16,39.9-27,57.5c14.4-25.5,44.2-41.6,73.4-39.3c29.2,2.3,56.3,23.2,65.3,51
		c9.1,27.8-0.7,60.9-23.7,79c-23,18.1-57.9,19.6-81.8,4c27.4,15,48.8,42.8,50.8,74c2,31.1-18.6,63.7-49,70.8
		c-21.6,5-45.3-3.2-60.7-19.1c-15.4-15.9-22.8-38.8-24.8-61.5c0.1,34.1-21.7,68.1-53.9,79.6c-32.2,11.4-72.4-2.7-87.9-33.1
		c-10.7-20.9-9.2-47.1,2-67.7s31.6-35.7,52.7-44.7c-30,16.4-71.3,5.3-91-22.6c-19.7-27.9-16.9-68.8,4.5-95.4
		c9.1-11.4,21.6-20.5,35.9-23.4c16.9-3.5,34.7,1.8,49.3,11C183.5,164.5,195.4,177.3,206.4,189.6z M260.3,319.3
		c33.3,0,60.4-26.2,60.4-58.5c0-32.3-27.1-58.5-60.4-58.5s-60.4,26.2-60.4,58.5C199.9,293.1,227,319.3,260.3,319.3z"/>
</g>
</svg>
