<?xml version="1.0" encoding="utf-8"?>
<!-- Generator: Adobe Illustrator 28.3.0, SVG Export Plug-In . SVG Version: 6.00 Build 0)  -->
<svg version="1.1" xmlns="http://www.w3.org/2000/svg" xmlns:xlink="http://www.w3.org/1999/xlink" x="0px" y="0px"
	 viewBox="0 0 492 492" style="enable-background:new 0 0 492 492;" xml:space="preserve">
<style type="text/css">
	.st0{display:none;}
	.st1{display:inline;fill:#172C52;}
	.st2{display:inline;fill:none;stroke:#000000;stroke-width:3;stroke-miterlimit:10;}
	.st3{fill:#FFFFFF;}
	.st4{fill:none;stroke:#FFFFFF;stroke-width:9.4767;stroke-linejoin:round;stroke-miterlimit:10;}
</style>
<g id="Camada_1" class="st0">
	<rect class="st1" width="492" height="492"/>
	<line class="st2" x1="0" y1="56.5" x2="3019" y2="56.5"/>
	<line class="st2" x1="0" y1="434.5" x2="3019" y2="434.5"/>
</g>
<g id="Camada_2">
	<g id="Limpar_00000106854629409070442830000008693191271121310352_">
		<path class="st3" d="M453,403.7l-190.1-337c-7.3-13-25.5-13.1-32.9,0L38.3,405.3c-7.4,13.2,1.8,29.8,16.6,29.7l381.8-1.6
			C451.3,433.4,460.4,416.9,453,403.7z M226.6,147.8l32.1,2.8l-2.5,149.9l-24.9,3.7L226.6,147.8z M248,382.5
			c-9,0-16.2-7.9-16.2-17.7c0-9.7,7.3-17.6,16.2-17.6s16.2,7.9,16.2,17.6C264.2,374.6,257,382.5,248,382.5z"/>
	</g>
</g>
</svg>
