<?xml version="1.0" encoding="utf-8"?>
<!-- Generator: Adobe Adobe Illustrator 24.2.0, SVG Export Plug-In . SVG Version: 6.00 Build 0)  -->
<svg version="1.1" xmlns="http://www.w3.org/2000/svg" xmlns:xlink="http://www.w3.org/1999/xlink" x="0px" y="0px" width="1920px"
	 height="1080px" viewBox="0 0 1920 1080" style="enable-background:new 0 0 1920 1080;" xml:space="preserve">
<style type="text/css">
	.st0{fill:#172C52;}
	.st1{fill:#FFFFFF;}
	.st2{fill:none;stroke:#FFFFFF;stroke-width:2.5;stroke-linejoin:round;stroke-miterlimit:10;}
</style>
<g id="Layer_5">
	<rect x="262.17" y="164.14" class="st0" width="976" height="540"/>
</g>
<g id="Refazer">
	<path class="st1" d="M1079.73,386.89h-81.4c-5.27,0-9.55,4.27-9.55,9.55v78.4c0,5.27,4.28,9.55,9.55,9.55h81.4
		c5.28,0,9.55-4.28,9.55-9.55v-78.4C1089.28,391.16,1085.02,386.89,1079.73,386.89z M1063.08,450.52
		c-4.61,4.59-11.22,6.77-17.73,7.04c-3.58,0.14-8.97-1.46-14.13-3.25v7.41c0,1.71-1.96,2.69-3.33,1.65l-14.49-10.95
		c-1.09-0.83-1.09-2.48,0-3.31l14.49-10.96c1.37-1.03,3.33-0.06,3.33,1.66v8.31c4.76,0.56,9.66,1.95,12.87,1.57
		c6.07-0.72,12.2-4.31,14.09-10.12c1.75-5.41-0.67-11.61-5-15.3c-4.33-3.7-10.22-5.15-15.91-5.15c-4.93,0.01-9.78,1.02-14.58,2.16
		c-1.28,0.3-2.59-0.48-2.92-1.76c-0.8-3.11-1.1-6.11-0.95-9.06c0.06-1.17,0.87-2.16,1.99-2.49c8.31-2.44,17.28-3.01,25.64-0.66
		c8.97,2.52,17.14,8.69,20.86,17.23C1071.04,433.09,1069.7,443.94,1063.08,450.52z"/>
</g>
<g id="Mulheres">
	<g>
		<path class="st1" d="M827.89,386.89h-81.4c-5.28,0-9.55,4.28-9.55,9.55v78.4c0,5.27,4.27,9.55,9.55,9.55h81.4
			c5.27,0,9.55-4.28,9.55-9.55v-78.4C837.44,391.17,833.16,386.89,827.89,386.89z M813.57,414.72l-37.5,48.65
			c-0.72,0.94-2.12,1-2.93,0.12l-19.6-21.51c-0.93-1.02-0.79-2.6,0.29-3.45l4.68-3.64c0.82-0.63,2-0.45,2.6,0.4l12.71,17.85
			c0.24,0.33,0.99,0.33,1.23-0.01l28.31-44.56c0.87-1.26,2.58-1.61,3.88-0.8l5.72,3.56C814.12,412.06,814.41,413.63,813.57,414.72z"
			/>
	</g>
	<path class="st1" d="M898.52,420.22c-5.34-6.88-6.14-16.95-1.96-24.58c4.18-7.63,13.1-12.4,21.78-11.62
		c4.11,0.37,8.2,1.95,11.09,4.88c4.13,4.19,5.32,10.65,4.16,16.41c-1.16,5.76-4.37,10.91-7.38,15.74
		c3.94-6.97,12.08-11.39,20.07-10.76c7.99,0.63,15.39,6.34,17.87,13.95c2.48,7.61-0.18,16.66-6.49,21.61
		c-6.3,4.95-15.83,5.37-22.38,1.09c7.5,4.09,13.35,11.71,13.89,20.23c0.54,8.52-5.09,17.43-13.41,19.36
		c-5.91,1.37-12.39-0.87-16.6-5.23c-4.22-4.36-6.23-10.6-6.79-16.82c0.04,9.34-5.93,18.64-14.74,21.77
		c-8.81,3.13-19.79-0.73-24.04-9.05c-2.92-5.73-2.52-12.89,0.56-18.53s8.65-9.76,14.42-12.22c-8.21,4.48-19.5,1.46-24.88-6.18
		c-5.38-7.64-4.63-18.81,1.23-26.09c2.5-3.11,5.92-5.6,9.83-6.41c4.63-0.97,9.5,0.5,13.49,3.02
		C892.24,413.33,895.5,416.84,898.52,420.22z M913.27,455.68c9.12,0,16.52-7.16,16.52-16c0-8.83-7.4-16-16.52-16
		s-16.52,7.16-16.52,16C896.75,448.51,904.14,455.68,913.27,455.68z"/>
</g>
<g id="Saideira">
	<path class="st1" d="M690.12,421.2c-1.4,0.55-2.74-1.47-2.21-2.96s2.1-2.23,3.57-2.47c4.63-0.74,9.33,2.22,11.81,6.45
		c2.48,4.23,3.02,9.47,2.53,14.42c-0.7,7.08-3.41,13.93-7.68,19.41c-1.75,2.25-3.83,4.31-6.37,5.41c-0.94,0.41-1.98,0.67-2.97,0.47
		s-1.94-0.97-2.16-2.03c-0.36-1.78,1.31-3.2,2.69-4.28c7.22-5.67,11.6-15.21,11.36-24.74c-0.08-3.07-0.7-6.32-2.71-8.53
		S692.57,420.23,690.12,421.2z"/>
	<path class="st1" d="M668.53,429.95c4.26,0,7.42,0.08,11.79,0.08c1.22,0,2.33,0.29,3.11,1.11c1.02,1.09,1,3.27,0.97,4.64
		c-0.23,10.75-0.47,21.49-0.7,32.24c-0.11,5.08-0.38,10.62-3.55,14.42c-1.92,2.31-4.71,3.65-7.55,4.29
		c-2.84,0.64-5.77,0.62-8.67,0.6c-9.34-0.05-18.68-0.11-28.03-0.16c-4.97-0.03-10.45-0.27-14.06-3.89
		c-3.88-3.9-4.17-10.25-4.2-15.93c-0.05-10.53-0.1-21.05-0.16-31.58c-0.01-1.94,0.37-2.84,1.72-4.15c1.61-1.56,2.99-1.46,4.64-1.46
		c11.13,0,20-0.11,31.46-0.11c-0.53,2.54,0.22,5.35,1.94,7.21c1.71,1.86,4.33,2.73,6.74,2.23c1.07-0.22,2.12-0.72,2.87-1.57
		C668.38,436.19,668.53,432.56,668.53,429.95z"/>
	<path class="st2" d="M689.08,404.49c-0.84,2.33-2.51,4.37-4.6,5.67c-1.3,0.81-2.77,1.34-4.31,1.47c-3.49,0.29-7.11-1.68-8.68-4.75
		c-0.24-0.46-0.42-0.94-0.56-1.44c-0.39,0.51-0.81,0.99-1.26,1.44c-1.61,1.6-3.58,2.73-5.68,2.92c-0.13,5.25,0.48,10.41,1.85,15.33
		c0.26,0.93,0.55,1.86,0.87,2.77c0.71,2.05,1.57,4.15,1.34,6.31c-0.29,2.57-2.28,4.86-4.78,5.55s-5.35-0.23-7.03-2.2
		c-1.68-1.97-2.13-4.89-1.19-7.31c0.53-1.37,1.46-2.55,2.15-3.85c0.22-0.42,0.41-0.84,0.57-1.27c1.84-4.6,0.95-9.97,0.01-14.93
		c-1.81-0.58-3.58-1.76-4.94-3.32c-0.58-0.66-1.09-1.39-1.49-2.18c-0.3,0.78-0.71,1.51-1.2,2.18c-1.85,2.57-4.91,4.24-8.04,4.21
		c-3.08-0.03-6.06-1.7-7.81-4.21c-0.51-0.7-0.91-1.48-1.19-2.3c-0.2,0.83-0.53,1.6-0.98,2.3c-1.74,2.76-5.16,4.44-8.42,4.1
		c-2.34-0.25-4.49-1.4-6.15-3.07c-1.24-1.25-2.21-2.79-2.78-4.46c-1.15-3.38-0.67-7.46,1.81-10.03c2.07-2.16,5.29-3,8.26-2.63
		c2.97,0.38,5.72,1.84,8.07,3.7c1.39-3.91,5.72-6.93,10.18-6.87c4.45,0.05,8.71,3.18,10.09,7.42c2.32-2.67,5.36-4.3,8.37-4.12
		c3,0.18,5.83,2.16,7.02,4.92c1.69-3.13,4.67-5.46,8.04-6.14c3.37-0.69,7.05,0.3,9.59,2.62
		C689.47,395.3,690.58,400.33,689.08,404.49z"/>
	<path class="st1" d="M657.77,425.13h-38.81c-0.82,0-1.48-0.66-1.48-1.48v-15.29c0-0.16,0.02-0.31,0.08-0.45
		c1.66,1.67,3.81,2.82,6.15,3.07c3.26,0.34,6.68-1.34,8.42-4.1h2.17c1.75,2.51,4.73,4.18,7.81,4.21c3.13,0.03,6.19-1.64,8.04-4.21
		h2.69c1.36,1.56,3.13,2.74,4.94,3.32C658.72,415.16,659.61,420.53,657.77,425.13z"/>
	<path class="st1" d="M684.48,410.16v13.49c0,0.82-0.66,1.48-1.48,1.48h-17.16c-1.37-4.92-1.98-10.08-1.85-15.33
		c2.1-0.19,4.07-1.32,5.68-2.92h1.82c1.57,3.07,5.19,5.04,8.68,4.75C681.71,411.5,683.18,410.97,684.48,410.16z"/>
</g>
<g id="Limpar">
	<path class="st1" d="M602.71,476.95l-49.8-88.25c-1.92-3.41-6.69-3.42-8.62,0l-50.2,88.65c-1.95,3.46,0.47,7.8,4.34,7.79
		l99.99-0.41C602.27,484.71,604.65,480.39,602.71,476.95z M543.54,409.92l8.4,0.74l-0.65,39.25l-6.53,0.98L543.54,409.92z
		 M549.02,471.38c-2.35,0-4.25-2.07-4.25-4.63c0-2.55,1.9-4.62,4.25-4.62c2.35,0,4.25,2.07,4.25,4.62
		C553.27,469.31,551.37,471.38,549.02,471.38z"/>
</g>
</svg>
